<svg width="166" height="29" viewBox="0 0 166 29" fill="none" xmlns="http://www.w3.org/2000/svg">
<path d="M18.4804 21.4207C17.0497 23.345 14.6878 24.6106 12.0042 24.6106C7.63174 24.6106 4.08465 21.265 4.08465 17.1408C4.08465 13.0166 7.63174 9.67097 12.0042 9.67097C14.6878 9.67097 17.0497 10.9366 18.4804 12.8609L21.8159 10.6571C19.6444 7.73863 16.0677 5.82227 12 5.82227C5.37142 5.82227 0 10.8887 0 17.1408C0 23.393 5.37142 28.4593 12 28.4593C16.0635 28.4593 19.6444 26.5429 21.8159 23.6245L18.4804 21.4207Z" fill="black"/>
<path d="M25.5742 5.82227V28.4593H29.6504V9.22544H43.589L41.8916 10.9228V28.4593H45.9678V5.82227H25.5742Z" fill="black"/>
<path d="M67.7252 5.82227L54.8109 22.127V5.82227H50.7305V28.4593H54.1295L67.048 12.1545H68.7453L67.048 13.8519V28.4593H71.1284V5.82227H67.7252Z" fill="black"/>
<path d="M91.523 19.4004H83.8108C81.686 19.4004 79.9632 18.1052 79.9632 15.5528V6.14062H75.8828V14.8713C75.8828 20.2173 79.4299 22.7994 83.8108 22.7994H93.2203L91.523 24.4967V28.4544H95.6034L95.5778 19.4004H91.523Z" fill="black"/>
<path fill-rule="evenodd" clip-rule="evenodd" d="M100.8 6.2269V9.42364H95.6316V14.3143H92.3328V9.42364H87V6.2269H92.3328V1.5H95.6316V6.2269H100.8Z" fill="black"/>
<path d="M109.152 16.4935V5.34149H110.496V7.69349L110.064 7.38949C110.203 6.93083 110.405 6.54149 110.672 6.22149C110.949 5.89083 111.285 5.64016 111.68 5.46949C112.075 5.29882 112.523 5.21349 113.024 5.21349C113.739 5.21349 114.363 5.39482 114.896 5.75749C115.44 6.10949 115.861 6.59483 116.16 7.21349C116.459 7.82149 116.608 8.51483 116.608 9.29349C116.608 10.1148 116.448 10.8348 116.128 11.4535C115.808 12.0615 115.376 12.5308 114.832 12.8615C114.288 13.1922 113.685 13.3575 113.024 13.3575C112.523 13.3575 112.075 13.2668 111.68 13.0855C111.285 12.9042 110.955 12.6535 110.688 12.3335C110.421 12.0135 110.229 11.6508 110.112 11.2455L110.496 10.8775V16.4935H109.152ZM112.8 12.1255C113.28 12.1255 113.701 12.0082 114.064 11.7735C114.437 11.5282 114.725 11.1922 114.928 10.7655C115.141 10.3388 115.248 9.84816 115.248 9.29349C115.248 8.73883 115.141 8.24816 114.928 7.82149C114.725 7.39483 114.437 7.06416 114.064 6.82949C113.701 6.58416 113.28 6.46149 112.8 6.46149C112.32 6.46149 111.899 6.58416 111.536 6.82949C111.173 7.06416 110.891 7.39483 110.688 7.82149C110.485 8.24816 110.384 8.73883 110.384 9.29349C110.384 9.84816 110.485 10.3388 110.688 10.7655C110.891 11.1922 111.173 11.5282 111.536 11.7735C111.899 12.0082 112.32 12.1255 112.8 12.1255ZM120.127 13.3575C119.647 13.3575 119.257 13.2082 118.959 12.9095C118.66 12.6108 118.511 12.1362 118.511 11.4855V2.07749H119.855V11.2295C119.855 11.5388 119.919 11.7628 120.047 11.9015C120.175 12.0402 120.345 12.1095 120.559 12.1095C120.655 12.1095 120.761 12.0988 120.879 12.0775C120.996 12.0562 121.119 12.0242 121.247 11.9815V13.1335C121.065 13.2082 120.873 13.2615 120.671 13.2935C120.468 13.3362 120.287 13.3575 120.127 13.3575ZM127.961 13.2295L127.865 11.6455V8.28549C127.865 7.67749 127.694 7.20816 127.353 6.87749C127.022 6.54683 126.526 6.38149 125.865 6.38149C125.438 6.38149 125.038 6.47216 124.665 6.65349C124.292 6.82416 123.929 7.11749 123.577 7.53349L122.601 6.70149C123.038 6.18949 123.54 5.81616 124.105 5.58149C124.67 5.33616 125.289 5.21349 125.961 5.21349C126.996 5.21349 127.796 5.48016 128.361 6.01349C128.926 6.54683 129.209 7.30416 129.209 8.28549V13.2295H127.961ZM125.353 13.3575C124.756 13.3575 124.233 13.2562 123.785 13.0535C123.348 12.8402 123.006 12.5468 122.761 12.1735C122.526 11.8002 122.409 11.3682 122.409 10.8775C122.409 10.4402 122.494 10.0722 122.665 9.77349C122.846 9.46416 123.076 9.22416 123.353 9.05349C123.63 8.87216 123.945 8.74949 124.297 8.68549C124.66 8.61083 125.038 8.57349 125.433 8.57349H127.993V9.59749H125.625C125.39 9.59749 125.145 9.61883 124.889 9.66149C124.633 9.70416 124.409 9.79483 124.217 9.93349C124.078 10.0402 123.966 10.1735 123.881 10.3335C123.806 10.4935 123.769 10.6802 123.769 10.8935C123.769 11.3095 123.924 11.6402 124.233 11.8855C124.542 12.1308 124.958 12.2535 125.481 12.2535C125.918 12.2535 126.313 12.1522 126.665 11.9495C127.028 11.7468 127.316 11.4695 127.529 11.1175C127.753 10.7548 127.865 10.3495 127.865 9.90149L128.425 10.4775C128.361 11.0428 128.19 11.5442 127.913 11.9815C127.636 12.4188 127.278 12.7602 126.841 13.0055C126.414 13.2402 125.918 13.3575 125.353 13.3575ZM131.418 13.2295V5.34149H132.778V7.02149L132.458 7.13349C132.607 6.72816 132.81 6.38683 133.066 6.10949C133.322 5.82149 133.631 5.60283 133.994 5.45349C134.356 5.29349 134.756 5.21349 135.194 5.21349C136.058 5.21349 136.735 5.46949 137.226 5.98149C137.716 6.48283 137.962 7.22949 137.962 8.22149V13.2295H136.602V8.71749C136.602 7.91749 136.452 7.33083 136.154 6.95749C135.866 6.57349 135.423 6.38149 134.826 6.38149C134.388 6.38149 134.015 6.48283 133.706 6.68549C133.407 6.88816 133.178 7.20816 133.018 7.64549C132.858 8.07216 132.778 8.62149 132.778 9.29349V13.2295H131.418ZM140.168 13.2295V5.34149H141.528V7.02149L141.208 7.13349C141.357 6.72816 141.56 6.38683 141.816 6.10949C142.072 5.82149 142.381 5.60283 142.744 5.45349C143.106 5.29349 143.506 5.21349 143.944 5.21349C144.808 5.21349 145.485 5.46949 145.976 5.98149C146.466 6.48283 146.712 7.22949 146.712 8.22149V13.2295H145.352V8.71749C145.352 7.91749 145.202 7.33083 144.904 6.95749C144.616 6.57349 144.173 6.38149 143.576 6.38149C143.138 6.38149 142.765 6.48283 142.456 6.68549C142.157 6.88816 141.928 7.20816 141.768 7.64549C141.608 8.07216 141.528 8.62149 141.528 9.29349V13.2295H140.168ZM152.246 13.3575C151.627 13.3575 151.083 13.2562 150.614 13.0535C150.155 12.8402 149.771 12.5468 149.462 12.1735C149.163 11.8002 148.934 11.3735 148.774 10.8935C148.624 10.4028 148.55 9.88549 148.55 9.34149C148.55 8.79749 148.624 8.28016 148.774 7.78949C148.923 7.28816 149.142 6.84549 149.43 6.46149C149.728 6.07749 150.102 5.77349 150.55 5.54949C150.998 5.32549 151.52 5.21349 152.118 5.21349C152.726 5.21349 153.248 5.32016 153.686 5.53349C154.134 5.73616 154.496 6.01883 154.774 6.38149C155.062 6.74416 155.275 7.14949 155.414 7.59749C155.552 8.04549 155.622 8.50949 155.622 8.98949C155.622 9.03216 155.616 9.13349 155.606 9.29349C155.606 9.44283 155.595 9.57616 155.574 9.69349H149.894C149.926 10.4615 150.15 11.0588 150.566 11.4855C150.982 11.9122 151.547 12.1255 152.262 12.1255C152.72 12.1255 153.12 12.0508 153.462 11.9015C153.803 11.7522 154.123 11.5122 154.422 11.1815L155.366 12.0135C155.078 12.3228 154.774 12.5788 154.454 12.7815C154.134 12.9735 153.792 13.1175 153.43 13.2135C153.078 13.3095 152.683 13.3575 152.246 13.3575ZM154.278 9.00549C154.299 8.92016 154.31 8.83483 154.31 8.74949C154.32 8.66416 154.326 8.57883 154.326 8.49349C154.326 8.23749 154.278 7.98149 154.182 7.72549C154.096 7.46949 153.963 7.24016 153.782 7.03749C153.611 6.82416 153.387 6.65883 153.11 6.54149C152.843 6.41349 152.523 6.34949 152.15 6.34949C151.691 6.34949 151.296 6.45616 150.966 6.66949C150.635 6.88283 150.379 7.16549 150.198 7.51749C150.016 7.86949 149.91 8.25883 149.878 8.68549H154.726L154.278 9.00549ZM157.558 13.2295V5.34149H158.918V7.45349L158.566 7.53349C158.641 7.06416 158.817 6.65883 159.094 6.31749C159.382 5.96549 159.713 5.69349 160.086 5.50149C160.47 5.30949 160.844 5.21349 161.206 5.21349C161.452 5.21349 161.686 5.24016 161.91 5.29349C162.134 5.34683 162.364 5.43749 162.598 5.56549L161.926 6.78149C161.798 6.71749 161.644 6.66416 161.462 6.62149C161.292 6.57883 161.126 6.55749 160.966 6.55749C160.71 6.55749 160.454 6.60549 160.198 6.70149C159.953 6.79749 159.729 6.94683 159.526 7.14949C159.324 7.35216 159.169 7.62416 159.062 7.96549C159.02 8.11483 158.982 8.31216 158.95 8.55749C158.929 8.79216 158.918 9.11749 158.918 9.53349V13.2295H157.558Z" fill="black"/>
</svg>
